<svg xmlns="http://www.w3.org/2000/svg" xmlns:xlink="http://www.w3.org/1999/xlink" width="183.772" height="184.264" viewBox="0 0 183.772 184.264">
  <defs>
    <clipPath id="clip-path">
      <path id="Clip_2" data-name="Clip 2" d="M91.82,184.264a92.317,92.317,0,0,1-18.507-1.883A91.253,91.253,0,0,1,40.48,168.508a92.244,92.244,0,0,1,15.6-161.25A91.24,91.24,0,0,1,73.313,1.883a91.9,91.9,0,0,1,37.014,0,91.253,91.253,0,0,1,32.834,13.873,92.243,92.243,0,0,1-15.6,161.25,91.244,91.244,0,0,1-17.237,5.375A92.32,92.32,0,0,1,91.82,184.264ZM72.657,95.4a4.563,4.563,0,0,0-2.389.658,35.2,35.2,0,0,0-5.9,4.366,28.71,28.71,0,0,0-4.514,5.266,22.556,22.556,0,0,0-1.059,23.635,28.894,28.894,0,0,0,7.746,8.971,37.871,37.871,0,0,0,11.489,6.049,45.733,45.733,0,0,0,28.139,0,37.871,37.871,0,0,0,11.489-6.049,28.9,28.9,0,0,0,7.746-8.971,22.856,22.856,0,0,0,2.84-10.986,22.474,22.474,0,0,0-.96-6.488,24.388,24.388,0,0,0-2.734-5.954,31.15,31.15,0,0,0-9.913-9.622,4.755,4.755,0,0,0-2.587-.745c-2.677,0-5.611,2.034-8.718,4.188-3.6,2.492-7.312,5.07-11.235,5.07-3.8,0-7.405-2.6-10.893-5.122C78.164,97.47,75.293,95.4,72.657,95.4Z" transform="translate(0.132 0.229)" fill="none"/>
    </clipPath>
    <clipPath id="clip-path-2">
      <path id="Clip_5" data-name="Clip 5" d="M79.295,159.585a79.4,79.4,0,0,1-15.981-1.621A78.6,78.6,0,0,1,34.96,145.958,79.792,79.792,0,0,1,1.611,95.874a81.071,81.071,0,0,1,0-32.162A79.71,79.71,0,0,1,48.429,6.27,78.535,78.535,0,0,1,63.314,1.621a79.58,79.58,0,0,1,31.961,0,78.6,78.6,0,0,1,28.353,12.006,79.793,79.793,0,0,1,33.349,50.085,81.07,81.07,0,0,1,0,32.162,79.711,79.711,0,0,1-46.818,57.441,78.531,78.531,0,0,1-14.884,4.649A79.4,79.4,0,0,1,79.295,159.585ZM59.988,83.07a4.551,4.551,0,0,0-2.389.66,35.206,35.206,0,0,0-5.9,4.381A28.783,28.783,0,0,0,47.182,93.4a22.705,22.705,0,0,0-1.059,23.719,28.97,28.97,0,0,0,7.746,9,37.823,37.823,0,0,0,11.489,6.07,45.571,45.571,0,0,0,28.137,0,37.823,37.823,0,0,0,11.488-6.07,28.97,28.97,0,0,0,7.746-9,23,23,0,0,0,2.84-11.025,22.632,22.632,0,0,0-.96-6.511,24.516,24.516,0,0,0-2.733-5.975,31.2,31.2,0,0,0-9.912-9.657,4.743,4.743,0,0,0-2.587-.747c-2.677,0-5.611,2.042-8.717,4.2-3.595,2.5-7.312,5.088-11.234,5.088-3.8,0-7.405-2.613-10.893-5.14C65.494,85.15,62.624,83.07,59.988,83.07Z" transform="translate(0.165 0.184)" fill="none"/>
    </clipPath>
    <linearGradient id="linear-gradient" x1="0.872" y1="0.133" x2="0.131" y2="0.864" gradientUnits="objectBoundingBox">
      <stop offset="0" stop-color="#fff"/>
      <stop offset="1" stop-color="#d0d0d0"/>
    </linearGradient>
    <clipPath id="clip-path-3">
      <path id="Clip_8" data-name="Clip 8" d="M77.3,154.606a77.878,77.878,0,0,1-15.58-1.57A76.881,76.881,0,0,1,34.082,141.4,77.526,77.526,0,0,1,6.075,107.393a76.912,76.912,0,0,1-4.5-14.511,78.058,78.058,0,0,1,0-31.159A76.88,76.88,0,0,1,13.2,34.082,77.529,77.529,0,0,1,47.213,6.075a76.914,76.914,0,0,1,14.511-4.5,78.058,78.058,0,0,1,31.159,0A76.879,76.879,0,0,1,120.525,13.2a77.528,77.528,0,0,1,28.007,34.011,76.913,76.913,0,0,1,4.5,14.511,78.059,78.059,0,0,1,0,31.159A76.879,76.879,0,0,1,141.4,120.524a77.527,77.527,0,0,1-34.011,28.007,76.913,76.913,0,0,1-14.511,4.5A77.876,77.876,0,0,1,77.3,154.606ZM58.016,80.557a4.567,4.567,0,0,0-2.386.656,35.149,35.149,0,0,0-5.9,4.349,28.617,28.617,0,0,0-4.509,5.247,22.422,22.422,0,0,0-1.058,23.547,28.809,28.809,0,0,0,7.738,8.938A37.865,37.865,0,0,0,63.38,129.32a45.8,45.8,0,0,0,28.109,0,37.866,37.866,0,0,0,11.477-6.026,28.81,28.81,0,0,0,7.738-8.938,22.722,22.722,0,0,0,2.838-10.945,22.337,22.337,0,0,0-.959-6.464,24.268,24.268,0,0,0-2.731-5.932,31.081,31.081,0,0,0-9.9-9.587,4.76,4.76,0,0,0-2.584-.741c-2.674,0-5.606,2.027-8.709,4.173-3.591,2.483-7.3,5.051-11.222,5.051-3.8,0-7.4-2.594-10.882-5.1C63.517,82.621,60.649,80.556,58.016,80.557Z" transform="translate(0.156 0.174)" fill="none"/>
    </clipPath>
    <clipPath id="clip-path-4">
      <path id="Clip_11" data-name="Clip 11" d="M70.917,141.836a70.585,70.585,0,0,1-39.65-12.112,71.125,71.125,0,0,1-25.694-31.2,70.824,70.824,0,0,1,6.539-67.255,71.125,71.125,0,0,1,31.2-25.694,70.825,70.825,0,0,1,67.255,6.539,71.125,71.125,0,0,1,25.694,31.2,70.824,70.824,0,0,1-6.539,67.255,71.125,71.125,0,0,1-31.2,25.694A70.474,70.474,0,0,1,70.917,141.836ZM51.683,74.162h0a4.555,4.555,0,0,0-2.38.654,35.049,35.049,0,0,0-5.882,4.337,28.541,28.541,0,0,0-4.5,5.233,22.361,22.361,0,0,0-1.056,23.485,28.733,28.733,0,0,0,7.717,8.914,37.765,37.765,0,0,0,11.446,6.01,45.678,45.678,0,0,0,28.034,0,37.765,37.765,0,0,0,11.446-6.01,28.732,28.732,0,0,0,7.717-8.914,22.662,22.662,0,0,0,2.83-10.916,22.275,22.275,0,0,0-.956-6.447,24.2,24.2,0,0,0-2.723-5.916A31,31,0,0,0,93.5,75.031a4.748,4.748,0,0,0-2.578-.74c-2.667,0-5.59,2.021-8.685,4.161-3.581,2.477-7.285,5.037-11.192,5.037-3.785,0-7.378-2.587-10.852-5.089-3.027-2.18-5.887-4.239-8.513-4.239Z" transform="translate(0.042 0.059)" fill="none"/>
    </clipPath>
    <linearGradient id="linear-gradient-2" x1="0.12" y1="0.848" x2="0.926" y2="0.11" gradientUnits="objectBoundingBox">
      <stop offset="0" stop-color="#e3e3e3"/>
      <stop offset="1" stop-color="#bbb"/>
    </linearGradient>
    <clipPath id="clip-path-5">
      <path id="Clip_14" data-name="Clip 14" d="M68.952,138.9a68.094,68.094,0,0,1-26.839-5.458,68.805,68.805,0,0,1-11.712-6.4,69.685,69.685,0,0,1,0-115.181,68.8,68.8,0,0,1,11.712-6.4,68.721,68.721,0,0,1,53.678,0,68.8,68.8,0,0,1,11.712,6.4,69.685,69.685,0,0,1,0,115.181,68.8,68.8,0,0,1-11.712,6.4A68.1,68.1,0,0,1,68.952,138.9ZM49.741,72.715h0a4.525,4.525,0,0,0-2.377.658,35.032,35.032,0,0,0-5.875,4.363A28.66,28.66,0,0,0,37,83a22.634,22.634,0,0,0-1.054,23.625,28.847,28.847,0,0,0,7.708,8.968,37.627,37.627,0,0,0,11.432,6.046,45.31,45.31,0,0,0,28,0,37.627,37.627,0,0,0,11.432-6.046,28.847,28.847,0,0,0,7.708-8.968,22.928,22.928,0,0,0,2.826-10.981,22.558,22.558,0,0,0-.955-6.485,24.43,24.43,0,0,0-2.72-5.951,31.065,31.065,0,0,0-9.864-9.619,4.717,4.717,0,0,0-2.575-.744c-2.664,0-5.584,2.034-8.675,4.187C76.684,79.524,72.985,82.1,69.083,82.1c-3.78,0-7.369-2.6-10.839-5.119-3.024-2.193-5.88-4.264-8.5-4.264Z" transform="translate(0.007 0.025)" fill="none"/>
    </clipPath>
    <linearGradient id="linear-gradient-3" x1="0.12" y1="0.848" x2="0.926" y2="0.11" gradientUnits="objectBoundingBox">
      <stop offset="0" stop-color="#f6f6f6"/>
      <stop offset="1" stop-color="#bbb"/>
    </linearGradient>
    <clipPath id="clip-path-7">
      <path id="Clip_20" data-name="Clip 20" d="M0,23.029C0,38.9,16.3,51.764,36.413,51.764h0c20.11,0,36.413-12.865,36.413-28.735h0c0-9.436-5.569-17.632-14.471-22.87h0a1.008,1.008,0,0,0,.255.935h0q1.275.8,2.451,1.7h0c7.021,5.121,11.412,12.421,11.412,20.524h0c0,15.492-16.051,28.052-35.851,28.052h0C16.822,51.366.771,38.807.771,23.315h0A21.986,21.986,0,0,1,1.2,18.98h0c1.329-7.247,6.171-13.6,13.115-17.944h0A1.12,1.12,0,0,0,14.656,0h0C5.587,5.225,0,13.49,0,23.029" transform="translate(0.104 0.108)" fill="none"/>
    </clipPath>
    <clipPath id="clip-path-8">
      <path id="Clip_23" data-name="Clip 23" d="M69.877.008C61.126,16.96,66.792,28,71.381,32.8h0S80.5,42.537,80.7,54.458h0c0,18.51-17.6,31.982-39.3,31.982h0c-21.707,0-39.3-13.472-39.3-31.982h0A30.637,30.637,0,0,1,11.41,32.8h0S22.95,21.015,12.773.128h0L12.761.12h0C21.428,20.588,9.811,32.133,9.81,32.133h0A32.268,32.268,0,0,0,0,54.951H0c0,19.5,18.536,33.688,41.4,33.688h0c22.865,0,41.4-14.191,41.4-33.688h0c-.217-12.557-9.821-22.819-9.821-22.819h0C68.361,27.3,62.367,16.53,69.889,0h0l-.012.008" transform="translate(0.117 0.133)" fill="none"/>
    </clipPath>
    <clipPath id="clip-path-9">
      <path id="Clip_26" data-name="Clip 26" d="M91.885,184.264a92.325,92.325,0,0,1-18.518-1.872A91.251,91.251,0,0,1,40.512,168.53,92.244,92.244,0,0,1,56.12,7.24,91.242,91.242,0,0,1,73.367,1.872,92.322,92.322,0,0,1,91.885,0l91.886,92.132a93.053,93.053,0,0,1-1.867,18.568,91.764,91.764,0,0,1-90.02,73.564ZM72.789,95.4a4.562,4.562,0,0,0-2.388.658,35.2,35.2,0,0,0-5.9,4.366,28.708,28.708,0,0,0-4.514,5.266,22.556,22.556,0,0,0-1.059,23.635,28.894,28.894,0,0,0,7.746,8.971,37.87,37.87,0,0,0,11.489,6.049,45.733,45.733,0,0,0,28.139,0,37.871,37.871,0,0,0,11.489-6.049,28.9,28.9,0,0,0,7.746-8.971,22.856,22.856,0,0,0,2.84-10.986,22.476,22.476,0,0,0-.96-6.488,24.388,24.388,0,0,0-2.733-5.954,31.145,31.145,0,0,0-9.913-9.622,4.755,4.755,0,0,0-2.587-.745c-2.677,0-5.611,2.034-8.718,4.188-3.595,2.492-7.312,5.07-11.235,5.07-3.8,0-7.405-2.6-10.893-5.122C78.3,97.47,75.425,95.4,72.789,95.4Z" transform="translate(0 0.229)" fill="none"/>
    </clipPath>
    <clipPath id="clip-path-10">
      <path id="Clip_29" data-name="Clip 29" d="M84.853,29.58l0,0h0a38.245,38.245,0,0,1,11.762,27.23h0c0,22.759-21.113,39.323-47.156,39.323h0c-26.044,0-47.156-16.564-47.156-39.323h0a38.021,38.021,0,0,1,10.809-26.24h0c12.015-13.426,3.75-28.131,2.415-30.3h0c2.4,5.341,6.193,17.9-4.193,29.508h0A39.88,39.88,0,0,0,0,57.3H0C0,81.177,22.145,98.552,49.463,98.552h0c27.317,0,49.463-17.375,49.463-41.247h0A40.116,40.116,0,0,0,86.589,28.742h0l0,0h0C77.755,20.1,81.473,5.7,83.435,0h0c-.113.235-9.184,19.2,1.418,29.58" transform="translate(0.054 0.25)" fill="none"/>
    </clipPath>
    <clipPath id="clip-path-11">
      <path id="Clip_34" data-name="Clip 34" d="M6.6,0A6.805,6.805,0,0,0,0,7H0v9.718c0,3.865,22.9,3.865,22.9,0h0V7a6.805,6.805,0,0,0-6.6-7H6.6Z" transform="translate(0.07 0.241)" fill="none"/>
    </clipPath>
    <clipPath id="clip-path-12">
      <path id="Clip_37" data-name="Clip 37" d="M25.173,73.633a24.613,24.613,0,0,1-8.531-1.5,22.277,22.277,0,0,1-6.967-4.087,19.113,19.113,0,0,1-4.7-6.062,16.845,16.845,0,0,1-1.723-7.422V31.2A97.062,97.062,0,0,0,1.628,14.457C.825,9.935.008,6.828,0,6.8,0,3.049,3.5,0,7.813,0H42.534c4.308,0,7.813,3.049,7.813,6.8-.008.029-.811,3-1.627,7.537a96.986,96.986,0,0,0-1.628,16.544V54.563a16.845,16.845,0,0,1-1.723,7.422,19.087,19.087,0,0,1-4.7,6.062,22.264,22.264,0,0,1-6.967,4.087A24.623,24.623,0,0,1,25.173,73.633Zm-5.75-31.958a7.8,7.8,0,0,0-7.813,7.773v10.8c0,.995,1.466,1.83,4.238,2.415a47.566,47.566,0,0,0,9.325.8,47.566,47.566,0,0,0,9.325-.8c2.773-.585,4.238-1.42,4.238-2.415v-10.8a7.8,7.8,0,0,0-7.812-7.773ZM25.608,7.126A26.88,26.88,0,0,0,13.792,9.592C10.636,11.183,8.9,13.3,8.9,15.547c0,4.644,7.5,8.421,16.71,8.421s16.71-3.778,16.71-8.421c0-2.249-1.738-4.364-4.894-5.955A26.88,26.88,0,0,0,25.608,7.126Z" transform="translate(0.148 0.206)" fill="none"/>
    </clipPath>
    <clipPath id="clip-path-13">
      <path id="Clip_40" data-name="Clip 40" d="M18.873,19.733a29.432,29.432,0,0,1-13.345-2.89C1.963,14.98,0,12.5,0,9.867S1.963,4.753,5.528,2.89A29.432,29.432,0,0,1,18.873,0,29.434,29.434,0,0,1,32.219,2.89c3.565,1.864,5.528,4.341,5.528,6.977s-1.963,5.113-5.528,6.977A29.434,29.434,0,0,1,18.873,19.733Zm0-16.709c-8.056,0-14.611,3.034-14.611,6.764s6.554,6.764,14.611,6.764,14.612-3.034,14.612-6.764S26.93,3.024,18.873,3.024Z" transform="translate(0.246 0.174)" fill="none"/>
    </clipPath>
    <clipPath id="clip-path-14">
      <path id="Clip_43" data-name="Clip 43" d="M20.836,37.918a23.573,23.573,0,0,1-8.11-1.413A21.215,21.215,0,0,1,6.1,32.651a18.03,18.03,0,0,1-4.465-5.716,15.785,15.785,0,0,1-1.637-7V0H41.673V19.934a15.785,15.785,0,0,1-1.637,7,18.03,18.03,0,0,1-4.465,5.716A21.215,21.215,0,0,1,28.946,36.5,23.573,23.573,0,0,1,20.836,37.918ZM15.369,7.778a7.388,7.388,0,0,0-7.427,7.331V25.292c0,.938,1.393,1.726,4.029,2.278a45.545,45.545,0,0,0,8.864.759A45.545,45.545,0,0,0,29.7,27.57c2.636-.552,4.029-1.34,4.029-2.278V15.109A7.387,7.387,0,0,0,26.3,7.778Z" transform="translate(0.159 0.033)" fill="none"/>
    </clipPath>
    <clipPath id="clip-path-15">
      <path id="Clip_48" data-name="Clip 48" d="M23.918,70.688a23.193,23.193,0,0,1-8.106-1.438,21.132,21.132,0,0,1-6.619-3.924,18.32,18.32,0,0,1-4.463-5.818,16.32,16.32,0,0,1-1.636-7.125V29.954A106.319,106.319,0,0,0,0,6.525C0,2.927,3.33,0,7.422,0h32.99c4.093,0,7.422,2.927,7.422,6.525a103.28,103.28,0,0,0-3.092,23.118V52.382a16.32,16.32,0,0,1-1.636,7.125,18.321,18.321,0,0,1-4.463,5.818,21.132,21.132,0,0,1-6.619,3.924A23.193,23.193,0,0,1,23.918,70.688ZM18.454,40.009a7.451,7.451,0,0,0-7.422,7.462V57.835c0,.955,1.392,1.757,4.027,2.319a44.722,44.722,0,0,0,8.859.773,44.722,44.722,0,0,0,8.859-.773c2.634-.562,4.027-1.364,4.027-2.319V47.471a7.451,7.451,0,0,0-7.422-7.462ZM24.448,5.99l-.346,0c-6.2.048-9.977,1.531-12.056,2.767a9.743,9.743,0,0,0-3.1,2.758A5.473,5.473,0,0,0,7.9,14.651a4.886,4.886,0,0,0,1.334,3.19,11.674,11.674,0,0,0,3.592,2.664,26.251,26.251,0,0,0,11.5,2.5,25.954,25.954,0,0,0,11.353-2.386c3.08-1.541,4.805-3.578,4.856-5.735a6.4,6.4,0,0,0-1.924-4.767C36.013,7.458,30.982,5.99,24.448,5.99Z" transform="translate(0.157 0.04)" fill="none"/>
    </clipPath>
    <clipPath id="clip-path-16">
      <path id="Clip_51" data-name="Clip 51" d="M0,5.8a5.865,5.865,0,0,0,5.929,5.8h0a5.865,5.865,0,0,0,5.929-5.8h0A5.866,5.866,0,0,0,5.929,0h0A5.866,5.866,0,0,0,0,5.8" transform="translate(0.054 0.209)" fill="none"/>
    </clipPath>
    <linearGradient id="linear-gradient-4" x1="0.143" y1="0.829" x2="0.942" y2="0.092" gradientUnits="objectBoundingBox">
      <stop offset="0" stop-color="#f6f6f6"/>
      <stop offset="1" stop-color="#c5c5c5"/>
    </linearGradient>
    <clipPath id="clip-path-17">
      <path id="Clip_54" data-name="Clip 54" d="M0,4.894A5.078,5.078,0,0,0,5.242,9.788h0a5.076,5.076,0,0,0,5.242-4.894h0A5.076,5.076,0,0,0,5.242,0h0A5.078,5.078,0,0,0,0,4.894" transform="translate(0.24 0.113)" fill="none"/>
    </clipPath>
    <clipPath id="clip-path-18">
      <path id="Clip_57" data-name="Clip 57" d="M0,4.841A4.91,4.91,0,0,0,4.975,9.68h0A4.91,4.91,0,0,0,9.951,4.841h0A4.91,4.91,0,0,0,4.975,0h0A4.911,4.911,0,0,0,0,4.841" transform="translate(0.008 0.166)" fill="none"/>
    </clipPath>
    <radialGradient id="radial-gradient" cx="3.039" cy="6.419" r="7.257" gradientTransform="translate(0.088 0.175) scale(0.973 0.973)" gradientUnits="userSpaceOnUse">
      <stop offset="0" stop-color="#e3e3e3"/>
      <stop offset="1" stop-color="#9e9b9b"/>
    </radialGradient>
  </defs>
  <g id="Group_59" data-name="Group 59" transform="translate(0 -0.229)" opacity="0.264">
    <g id="Group_3" data-name="Group 3">
      <path id="Clip_2-2" data-name="Clip 2" d="M91.82,184.264a92.317,92.317,0,0,1-18.507-1.883A91.253,91.253,0,0,1,40.48,168.508a92.244,92.244,0,0,1,15.6-161.25A91.24,91.24,0,0,1,73.313,1.883a91.9,91.9,0,0,1,37.014,0,91.253,91.253,0,0,1,32.834,13.873,92.243,92.243,0,0,1-15.6,161.25,91.244,91.244,0,0,1-17.237,5.375A92.32,92.32,0,0,1,91.82,184.264ZM72.657,95.4a4.563,4.563,0,0,0-2.389.658,35.2,35.2,0,0,0-5.9,4.366,28.71,28.71,0,0,0-4.514,5.266,22.556,22.556,0,0,0-1.059,23.635,28.894,28.894,0,0,0,7.746,8.971,37.871,37.871,0,0,0,11.489,6.049,45.733,45.733,0,0,0,28.139,0,37.871,37.871,0,0,0,11.489-6.049,28.9,28.9,0,0,0,7.746-8.971,22.856,22.856,0,0,0,2.84-10.986,22.474,22.474,0,0,0-.96-6.488,24.388,24.388,0,0,0-2.734-5.954,31.15,31.15,0,0,0-9.913-9.622,4.755,4.755,0,0,0-2.587-.745c-2.677,0-5.611,2.034-8.718,4.188-3.6,2.492-7.312,5.07-11.235,5.07-3.8,0-7.405-2.6-10.893-5.122C78.164,97.47,75.293,95.4,72.657,95.4Z" transform="translate(0.132 0.229)" fill="none"/>
      <g id="Group_3-2" data-name="Group 3" clip-path="url(#clip-path)">
        <path id="Fill_1" data-name="Fill 1" d="M91.82,184.264a92.317,92.317,0,0,1-18.507-1.883A91.253,91.253,0,0,1,40.48,168.508a92.244,92.244,0,0,1,15.6-161.25A91.24,91.24,0,0,1,73.313,1.883a91.9,91.9,0,0,1,37.014,0,91.253,91.253,0,0,1,32.834,13.873,92.243,92.243,0,0,1-15.6,161.25,91.244,91.244,0,0,1-17.237,5.375A92.32,92.32,0,0,1,91.82,184.264ZM72.657,95.4a4.563,4.563,0,0,0-2.389.658,35.2,35.2,0,0,0-5.9,4.366,28.71,28.71,0,0,0-4.514,5.266,22.556,22.556,0,0,0-1.059,23.635,28.894,28.894,0,0,0,7.746,8.971,37.871,37.871,0,0,0,11.489,6.049,45.733,45.733,0,0,0,28.139,0,37.871,37.871,0,0,0,11.489-6.049,28.9,28.9,0,0,0,7.746-8.971,22.856,22.856,0,0,0,2.84-10.986,22.474,22.474,0,0,0-.96-6.488,24.388,24.388,0,0,0-2.734-5.954,31.15,31.15,0,0,0-9.913-9.622,4.755,4.755,0,0,0-2.587-.745c-2.677,0-5.611,2.034-8.718,4.188-3.6,2.492-7.312,5.07-11.235,5.07-3.8,0-7.405-2.6-10.893-5.122C78.164,97.47,75.293,95.4,72.657,95.4Z" transform="translate(0.132 0.229)" fill="none"/>
      </g>
    </g>
    <g id="Group_6" data-name="Group 6" transform="translate(13 13)">
      <path id="Clip_5-2" data-name="Clip 5" d="M79.295,159.585a79.4,79.4,0,0,1-15.981-1.621A78.6,78.6,0,0,1,34.96,145.958,79.792,79.792,0,0,1,1.611,95.874a81.071,81.071,0,0,1,0-32.162A79.71,79.71,0,0,1,48.429,6.27,78.535,78.535,0,0,1,63.314,1.621a79.58,79.58,0,0,1,31.961,0,78.6,78.6,0,0,1,28.353,12.006,79.793,79.793,0,0,1,33.349,50.085,81.07,81.07,0,0,1,0,32.162,79.711,79.711,0,0,1-46.818,57.441,78.531,78.531,0,0,1-14.884,4.649A79.4,79.4,0,0,1,79.295,159.585ZM59.988,83.07a4.551,4.551,0,0,0-2.389.66,35.206,35.206,0,0,0-5.9,4.381A28.783,28.783,0,0,0,47.182,93.4a22.705,22.705,0,0,0-1.059,23.719,28.97,28.97,0,0,0,7.746,9,37.823,37.823,0,0,0,11.489,6.07,45.571,45.571,0,0,0,28.137,0,37.823,37.823,0,0,0,11.488-6.07,28.97,28.97,0,0,0,7.746-9,23,23,0,0,0,2.84-11.025,22.632,22.632,0,0,0-.96-6.511,24.516,24.516,0,0,0-2.733-5.975,31.2,31.2,0,0,0-9.912-9.657,4.743,4.743,0,0,0-2.587-.747c-2.677,0-5.611,2.042-8.717,4.2-3.595,2.5-7.312,5.088-11.234,5.088-3.8,0-7.405-2.613-10.893-5.14C65.494,85.15,62.624,83.07,59.988,83.07Z" transform="translate(0.165 0.184)" fill="none"/>
      <g id="Group_6-2" data-name="Group 6" clip-path="url(#clip-path-2)">
        <path id="Fill_4" data-name="Fill 4" d="M79.295,159.585a79.4,79.4,0,0,1-15.981-1.621A78.6,78.6,0,0,1,34.96,145.958,79.792,79.792,0,0,1,1.611,95.874a81.071,81.071,0,0,1,0-32.162A79.71,79.71,0,0,1,48.429,6.27,78.535,78.535,0,0,1,63.314,1.621a79.58,79.58,0,0,1,31.961,0,78.6,78.6,0,0,1,28.353,12.006,79.793,79.793,0,0,1,33.349,50.085,81.07,81.07,0,0,1,0,32.162,79.711,79.711,0,0,1-46.818,57.441,78.531,78.531,0,0,1-14.884,4.649A79.4,79.4,0,0,1,79.295,159.585ZM59.988,83.07a4.551,4.551,0,0,0-2.389.66,35.206,35.206,0,0,0-5.9,4.381A28.783,28.783,0,0,0,47.182,93.4a22.705,22.705,0,0,0-1.059,23.719,28.97,28.97,0,0,0,7.746,9,37.823,37.823,0,0,0,11.489,6.07,45.571,45.571,0,0,0,28.137,0,37.823,37.823,0,0,0,11.488-6.07,28.97,28.97,0,0,0,7.746-9,23,23,0,0,0,2.84-11.025,22.632,22.632,0,0,0-.96-6.511,24.516,24.516,0,0,0-2.733-5.975,31.2,31.2,0,0,0-9.912-9.657,4.743,4.743,0,0,0-2.587-.747c-2.677,0-5.611,2.042-8.717,4.2-3.595,2.5-7.312,5.088-11.234,5.088-3.8,0-7.405-2.613-10.893-5.14C65.494,85.15,62.624,83.07,59.988,83.07Z" transform="translate(0.165 0.184)" fill="url(#linear-gradient)"/>
      </g>
    </g>
    <g id="Group_9" data-name="Group 9" transform="translate(15 15)">
      <path id="Clip_8-2" data-name="Clip 8" d="M77.3,154.606a77.878,77.878,0,0,1-15.58-1.57A76.881,76.881,0,0,1,34.082,141.4,77.526,77.526,0,0,1,6.075,107.393a76.912,76.912,0,0,1-4.5-14.511,78.058,78.058,0,0,1,0-31.159A76.88,76.88,0,0,1,13.2,34.082,77.529,77.529,0,0,1,47.213,6.075a76.914,76.914,0,0,1,14.511-4.5,78.058,78.058,0,0,1,31.159,0A76.879,76.879,0,0,1,120.525,13.2a77.528,77.528,0,0,1,28.007,34.011,76.913,76.913,0,0,1,4.5,14.511,78.059,78.059,0,0,1,0,31.159A76.879,76.879,0,0,1,141.4,120.524a77.527,77.527,0,0,1-34.011,28.007,76.913,76.913,0,0,1-14.511,4.5A77.876,77.876,0,0,1,77.3,154.606ZM58.016,80.557a4.567,4.567,0,0,0-2.386.656,35.149,35.149,0,0,0-5.9,4.349,28.617,28.617,0,0,0-4.509,5.247,22.422,22.422,0,0,0-1.058,23.547,28.809,28.809,0,0,0,7.738,8.938A37.865,37.865,0,0,0,63.38,129.32a45.8,45.8,0,0,0,28.109,0,37.866,37.866,0,0,0,11.477-6.026,28.81,28.81,0,0,0,7.738-8.938,22.722,22.722,0,0,0,2.838-10.945,22.337,22.337,0,0,0-.959-6.464,24.268,24.268,0,0,0-2.731-5.932,31.081,31.081,0,0,0-9.9-9.587,4.76,4.76,0,0,0-2.584-.741c-2.674,0-5.606,2.027-8.709,4.173-3.591,2.483-7.3,5.051-11.222,5.051-3.8,0-7.4-2.594-10.882-5.1C63.517,82.621,60.649,80.556,58.016,80.557Z" transform="translate(0.156 0.174)" fill="none"/>
      <g id="Group_9-2" data-name="Group 9" clip-path="url(#clip-path-3)">
        <path id="Fill_7" data-name="Fill 7" d="M77.3,154.606a77.878,77.878,0,0,1-15.58-1.57A76.881,76.881,0,0,1,34.082,141.4,77.526,77.526,0,0,1,6.075,107.393a76.912,76.912,0,0,1-4.5-14.511,78.058,78.058,0,0,1,0-31.159A76.88,76.88,0,0,1,13.2,34.082,77.529,77.529,0,0,1,47.213,6.075a76.914,76.914,0,0,1,14.511-4.5,78.058,78.058,0,0,1,31.159,0A76.879,76.879,0,0,1,120.525,13.2a77.528,77.528,0,0,1,28.007,34.011,76.913,76.913,0,0,1,4.5,14.511,78.059,78.059,0,0,1,0,31.159A76.879,76.879,0,0,1,141.4,120.524a77.527,77.527,0,0,1-34.011,28.007,76.913,76.913,0,0,1-14.511,4.5A77.876,77.876,0,0,1,77.3,154.606ZM58.016,80.557a4.567,4.567,0,0,0-2.386.656,35.149,35.149,0,0,0-5.9,4.349,28.617,28.617,0,0,0-4.509,5.247,22.422,22.422,0,0,0-1.058,23.547,28.809,28.809,0,0,0,7.738,8.938A37.865,37.865,0,0,0,63.38,129.32a45.8,45.8,0,0,0,28.109,0,37.866,37.866,0,0,0,11.477-6.026,28.81,28.81,0,0,0,7.738-8.938,22.722,22.722,0,0,0,2.838-10.945,22.337,22.337,0,0,0-.959-6.464,24.268,24.268,0,0,0-2.731-5.932,31.081,31.081,0,0,0-9.9-9.587,4.76,4.76,0,0,0-2.584-.741c-2.674,0-5.606,2.027-8.709,4.173-3.591,2.483-7.3,5.051-11.222,5.051-3.8,0-7.4-2.594-10.882-5.1C63.517,82.621,60.649,80.556,58.016,80.557Z" transform="translate(0.156 0.174)" fill="none"/>
      </g>
    </g>
    <g id="Group_12" data-name="Group 12" transform="translate(21 22)">
      <path id="Clip_11-2" data-name="Clip 11" d="M70.917,141.836a70.585,70.585,0,0,1-39.65-12.112,71.125,71.125,0,0,1-25.694-31.2,70.824,70.824,0,0,1,6.539-67.255,71.125,71.125,0,0,1,31.2-25.694,70.825,70.825,0,0,1,67.255,6.539,71.125,71.125,0,0,1,25.694,31.2,70.824,70.824,0,0,1-6.539,67.255,71.125,71.125,0,0,1-31.2,25.694A70.474,70.474,0,0,1,70.917,141.836ZM51.683,74.162h0a4.555,4.555,0,0,0-2.38.654,35.049,35.049,0,0,0-5.882,4.337,28.541,28.541,0,0,0-4.5,5.233,22.361,22.361,0,0,0-1.056,23.485,28.733,28.733,0,0,0,7.717,8.914,37.765,37.765,0,0,0,11.446,6.01,45.678,45.678,0,0,0,28.034,0,37.765,37.765,0,0,0,11.446-6.01,28.732,28.732,0,0,0,7.717-8.914,22.662,22.662,0,0,0,2.83-10.916,22.275,22.275,0,0,0-.956-6.447,24.2,24.2,0,0,0-2.723-5.916A31,31,0,0,0,93.5,75.031a4.748,4.748,0,0,0-2.578-.74c-2.667,0-5.59,2.021-8.685,4.161-3.581,2.477-7.285,5.037-11.192,5.037-3.785,0-7.378-2.587-10.852-5.089-3.027-2.18-5.887-4.239-8.513-4.239Z" transform="translate(0.042 0.059)" fill="none"/>
      <g id="Group_12-2" data-name="Group 12" clip-path="url(#clip-path-4)">
        <path id="Fill_10" data-name="Fill 10" d="M70.917,141.836a70.585,70.585,0,0,1-39.65-12.112,71.125,71.125,0,0,1-25.694-31.2,70.824,70.824,0,0,1,6.539-67.255,71.125,71.125,0,0,1,31.2-25.694,70.825,70.825,0,0,1,67.255,6.539,71.125,71.125,0,0,1,25.694,31.2,70.824,70.824,0,0,1-6.539,67.255,71.125,71.125,0,0,1-31.2,25.694A70.474,70.474,0,0,1,70.917,141.836ZM51.683,74.162h0a4.555,4.555,0,0,0-2.38.654,35.049,35.049,0,0,0-5.882,4.337,28.541,28.541,0,0,0-4.5,5.233,22.361,22.361,0,0,0-1.056,23.485,28.733,28.733,0,0,0,7.717,8.914,37.765,37.765,0,0,0,11.446,6.01,45.678,45.678,0,0,0,28.034,0,37.765,37.765,0,0,0,11.446-6.01,28.732,28.732,0,0,0,7.717-8.914,22.662,22.662,0,0,0,2.83-10.916,22.275,22.275,0,0,0-.956-6.447,24.2,24.2,0,0,0-2.723-5.916A31,31,0,0,0,93.5,75.031a4.748,4.748,0,0,0-2.578-.74c-2.667,0-5.59,2.021-8.685,4.161-3.581,2.477-7.285,5.037-11.192,5.037-3.785,0-7.378-2.587-10.852-5.089-3.027-2.18-5.887-4.239-8.513-4.239Z" transform="translate(0.042 0.059)" fill="url(#linear-gradient-2)"/>
      </g>
    </g>
    <g id="Group_15" data-name="Group 15" transform="translate(23 23)">
      <path id="Clip_14-2" data-name="Clip 14" d="M68.952,138.9a68.094,68.094,0,0,1-26.839-5.458,68.805,68.805,0,0,1-11.712-6.4,69.685,69.685,0,0,1,0-115.181,68.8,68.8,0,0,1,11.712-6.4,68.721,68.721,0,0,1,53.678,0,68.8,68.8,0,0,1,11.712,6.4,69.685,69.685,0,0,1,0,115.181,68.8,68.8,0,0,1-11.712,6.4A68.1,68.1,0,0,1,68.952,138.9ZM49.741,72.715h0a4.525,4.525,0,0,0-2.377.658,35.032,35.032,0,0,0-5.875,4.363A28.66,28.66,0,0,0,37,83a22.634,22.634,0,0,0-1.054,23.625,28.847,28.847,0,0,0,7.708,8.968,37.627,37.627,0,0,0,11.432,6.046,45.31,45.31,0,0,0,28,0,37.627,37.627,0,0,0,11.432-6.046,28.847,28.847,0,0,0,7.708-8.968,22.928,22.928,0,0,0,2.826-10.981,22.558,22.558,0,0,0-.955-6.485,24.43,24.43,0,0,0-2.72-5.951,31.065,31.065,0,0,0-9.864-9.619,4.717,4.717,0,0,0-2.575-.744c-2.664,0-5.584,2.034-8.675,4.187C76.684,79.524,72.985,82.1,69.083,82.1c-3.78,0-7.369-2.6-10.839-5.119-3.024-2.193-5.88-4.264-8.5-4.264Z" transform="translate(0.007 0.025)" fill="none"/>
      <g id="Group_15-2" data-name="Group 15" clip-path="url(#clip-path-5)">
        <path id="Fill_13" data-name="Fill 13" d="M68.952,138.9a68.094,68.094,0,0,1-26.839-5.458,68.805,68.805,0,0,1-11.712-6.4,69.685,69.685,0,0,1,0-115.181,68.8,68.8,0,0,1,11.712-6.4,68.721,68.721,0,0,1,53.678,0,68.8,68.8,0,0,1,11.712,6.4,69.685,69.685,0,0,1,0,115.181,68.8,68.8,0,0,1-11.712,6.4A68.1,68.1,0,0,1,68.952,138.9ZM49.741,72.715h0a4.525,4.525,0,0,0-2.377.658,35.032,35.032,0,0,0-5.875,4.363A28.66,28.66,0,0,0,37,83a22.634,22.634,0,0,0-1.054,23.625,28.847,28.847,0,0,0,7.708,8.968,37.627,37.627,0,0,0,11.432,6.046,45.31,45.31,0,0,0,28,0,37.627,37.627,0,0,0,11.432-6.046,28.847,28.847,0,0,0,7.708-8.968,22.928,22.928,0,0,0,2.826-10.981,22.558,22.558,0,0,0-.955-6.485,24.43,24.43,0,0,0-2.72-5.951,31.065,31.065,0,0,0-9.864-9.619,4.717,4.717,0,0,0-2.575-.744c-2.664,0-5.584,2.034-8.675,4.187C76.684,79.524,72.985,82.1,69.083,82.1c-3.78,0-7.369-2.6-10.839-5.119-3.024-2.193-5.88-4.264-8.5-4.264Z" transform="translate(0.007 0.025)" fill="none"/>
      </g>
    </g>
    <g id="Group_18" data-name="Group 18" transform="translate(21 22)">
      <path id="Clip_17-2" data-name="Clip 17" d="M70.917,141.836a70.585,70.585,0,0,1-39.65-12.112,71.125,71.125,0,0,1-25.694-31.2,70.824,70.824,0,0,1,6.539-67.255,71.125,71.125,0,0,1,31.2-25.694,70.825,70.825,0,0,1,67.255,6.539,71.125,71.125,0,0,1,25.694,31.2,70.824,70.824,0,0,1-6.539,67.255,71.125,71.125,0,0,1-31.2,25.694A70.474,70.474,0,0,1,70.917,141.836ZM51.683,74.162h0a4.555,4.555,0,0,0-2.38.654,35.049,35.049,0,0,0-5.882,4.337,28.541,28.541,0,0,0-4.5,5.233,22.361,22.361,0,0,0-1.056,23.485,28.733,28.733,0,0,0,7.717,8.914,37.765,37.765,0,0,0,11.446,6.01,45.678,45.678,0,0,0,28.034,0,37.765,37.765,0,0,0,11.446-6.01,28.732,28.732,0,0,0,7.717-8.914,22.662,22.662,0,0,0,2.83-10.916,22.275,22.275,0,0,0-.956-6.447,24.2,24.2,0,0,0-2.723-5.916A31,31,0,0,0,93.5,75.031a4.748,4.748,0,0,0-2.578-.74c-2.667,0-5.59,2.021-8.685,4.161-3.581,2.477-7.285,5.037-11.192,5.037-3.785,0-7.378-2.587-10.852-5.089-3.027-2.18-5.887-4.239-8.513-4.239Z" transform="translate(0.042 0.059)" fill="none"/>
      <g id="Group_18-2" data-name="Group 18" clip-path="url(#clip-path-4)">
        <path id="Fill_16" data-name="Fill 16" d="M70.917,141.836a70.585,70.585,0,0,1-39.65-12.112,71.125,71.125,0,0,1-25.694-31.2,70.824,70.824,0,0,1,6.539-67.255,71.125,71.125,0,0,1,31.2-25.694,70.825,70.825,0,0,1,67.255,6.539,71.125,71.125,0,0,1,25.694,31.2,70.824,70.824,0,0,1-6.539,67.255,71.125,71.125,0,0,1-31.2,25.694A70.474,70.474,0,0,1,70.917,141.836ZM51.683,74.162h0a4.555,4.555,0,0,0-2.38.654,35.049,35.049,0,0,0-5.882,4.337,28.541,28.541,0,0,0-4.5,5.233,22.361,22.361,0,0,0-1.056,23.485,28.733,28.733,0,0,0,7.717,8.914,37.765,37.765,0,0,0,11.446,6.01,45.678,45.678,0,0,0,28.034,0,37.765,37.765,0,0,0,11.446-6.01,28.732,28.732,0,0,0,7.717-8.914,22.662,22.662,0,0,0,2.83-10.916,22.275,22.275,0,0,0-.956-6.447,24.2,24.2,0,0,0-2.723-5.916A31,31,0,0,0,93.5,75.031a4.748,4.748,0,0,0-2.578-.74c-2.667,0-5.59,2.021-8.685,4.161-3.581,2.477-7.285,5.037-11.192,5.037-3.785,0-7.378-2.587-10.852-5.089-3.027-2.18-5.887-4.239-8.513-4.239Z" transform="translate(0.042 0.059)" fill="url(#linear-gradient-3)"/>
      </g>
    </g>
    <g id="Group_21" data-name="Group 21" transform="translate(56 95)">
      <path id="Clip_20-2" data-name="Clip 20" d="M0,23.029C0,38.9,16.3,51.764,36.413,51.764h0c20.11,0,36.413-12.865,36.413-28.735h0c0-9.436-5.569-17.632-14.471-22.87h0a1.008,1.008,0,0,0,.255.935h0q1.275.8,2.451,1.7h0c7.021,5.121,11.412,12.421,11.412,20.524h0c0,15.492-16.051,28.052-35.851,28.052h0C16.822,51.366.771,38.807.771,23.315h0A21.986,21.986,0,0,1,1.2,18.98h0c1.329-7.247,6.171-13.6,13.115-17.944h0A1.12,1.12,0,0,0,14.656,0h0C5.587,5.225,0,13.49,0,23.029" transform="translate(0.104 0.108)" fill="none"/>
      <g id="Group_21-2" data-name="Group 21" clip-path="url(#clip-path-7)">
        <path id="Fill_19" data-name="Fill 19" d="M0,23.029C0,38.9,16.3,51.764,36.413,51.764h0c20.11,0,36.413-12.865,36.413-28.735h0c0-9.436-5.569-17.632-14.471-22.87h0a1.008,1.008,0,0,0,.255.935h0q1.275.8,2.451,1.7h0c7.021,5.121,11.412,12.421,11.412,20.524h0c0,15.492-16.051,28.052-35.851,28.052h0C16.822,51.366.771,38.807.771,23.315h0A21.986,21.986,0,0,1,1.2,18.98h0c1.329-7.247,6.171-13.6,13.115-17.944h0A1.12,1.12,0,0,0,14.656,0h0C5.587,5.225,0,13.49,0,23.029" transform="translate(0.104 0.108)" fill="none"/>
      </g>
    </g>
    <g id="Group_24" data-name="Group 24" transform="translate(50 63)">
      <path id="Clip_23-2" data-name="Clip 23" d="M69.877.008C61.126,16.96,66.792,28,71.381,32.8h0S80.5,42.537,80.7,54.458h0c0,18.51-17.6,31.982-39.3,31.982h0c-21.707,0-39.3-13.472-39.3-31.982h0A30.637,30.637,0,0,1,11.41,32.8h0S22.95,21.015,12.773.128h0L12.761.12h0C21.428,20.588,9.811,32.133,9.81,32.133h0A32.268,32.268,0,0,0,0,54.951H0c0,19.5,18.536,33.688,41.4,33.688h0c22.865,0,41.4-14.191,41.4-33.688h0c-.217-12.557-9.821-22.819-9.821-22.819h0C68.361,27.3,62.367,16.53,69.889,0h0l-.012.008" transform="translate(0.117 0.133)" fill="none"/>
      <g id="Group_24-2" data-name="Group 24" clip-path="url(#clip-path-8)">
        <path id="Fill_22" data-name="Fill 22" d="M69.877.008C61.126,16.96,66.792,28,71.381,32.8h0S80.5,42.537,80.7,54.458h0c0,18.51-17.6,31.982-39.3,31.982h0c-21.707,0-39.3-13.472-39.3-31.982h0A30.637,30.637,0,0,1,11.41,32.8h0S22.95,21.015,12.773.128h0L12.761.12h0C21.428,20.588,9.811,32.133,9.81,32.133h0A32.268,32.268,0,0,0,0,54.951H0c0,19.5,18.536,33.688,41.4,33.688h0c22.865,0,41.4-14.191,41.4-33.688h0c-.217-12.557-9.821-22.819-9.821-22.819h0C68.361,27.3,62.367,16.53,69.889,0h0l-.012.008" transform="translate(0.117 0.133)" fill="none"/>
      </g>
    </g>
    <g id="Group_27" data-name="Group 27">
      <path id="Clip_26-2" data-name="Clip 26" d="M91.885,184.264a92.325,92.325,0,0,1-18.518-1.872A91.251,91.251,0,0,1,40.512,168.53,92.244,92.244,0,0,1,56.12,7.24,91.242,91.242,0,0,1,73.367,1.872,92.322,92.322,0,0,1,91.885,0l91.886,92.132a93.053,93.053,0,0,1-1.867,18.568,91.764,91.764,0,0,1-90.02,73.564ZM72.789,95.4a4.562,4.562,0,0,0-2.388.658,35.2,35.2,0,0,0-5.9,4.366,28.708,28.708,0,0,0-4.514,5.266,22.556,22.556,0,0,0-1.059,23.635,28.894,28.894,0,0,0,7.746,8.971,37.87,37.87,0,0,0,11.489,6.049,45.733,45.733,0,0,0,28.139,0,37.871,37.871,0,0,0,11.489-6.049,28.9,28.9,0,0,0,7.746-8.971,22.856,22.856,0,0,0,2.84-10.986,22.476,22.476,0,0,0-.96-6.488,24.388,24.388,0,0,0-2.733-5.954,31.145,31.145,0,0,0-9.913-9.622,4.755,4.755,0,0,0-2.587-.745c-2.677,0-5.611,2.034-8.718,4.188-3.595,2.492-7.312,5.07-11.235,5.07-3.8,0-7.405-2.6-10.893-5.122C78.3,97.47,75.425,95.4,72.789,95.4Z" transform="translate(0 0.229)" fill="none"/>
      <g id="Group_27-2" data-name="Group 27" clip-path="url(#clip-path-9)">
        <path id="Fill_25" data-name="Fill 25" d="M83.747,28.948l0,0A37.278,37.278,0,0,1,95.359,55.6c0,22.272-20.837,38.482-46.541,38.482S2.277,77.871,2.277,55.6A37.047,37.047,0,0,1,12.946,29.92C24.8,16.781,16.647,2.391,15.33.267c2.372,5.227,6.112,17.518-4.139,28.877A38.86,38.86,0,0,0,0,56.079C0,79.441,21.857,96.444,48.818,96.444s48.818-17,48.818-40.365c0-10.714-4.6-20.5-12.176-27.952l0,0C76.741,19.666,80.41,5.573,82.347,0c-.111.23-9.064,18.792,1.4,28.948" transform="translate(43.199 62.499)" fill="#fff"/>
      </g>
    </g>
    <g id="Group_30" data-name="Group 30" transform="translate(43 61)">
      <path id="Clip_29-2" data-name="Clip 29" d="M84.853,29.58l0,0h0a38.245,38.245,0,0,1,11.762,27.23h0c0,22.759-21.113,39.323-47.156,39.323h0c-26.044,0-47.156-16.564-47.156-39.323h0a38.021,38.021,0,0,1,10.809-26.24h0c12.015-13.426,3.75-28.131,2.415-30.3h0c2.4,5.341,6.193,17.9-4.193,29.508h0A39.88,39.88,0,0,0,0,57.3H0C0,81.177,22.145,98.552,49.463,98.552h0c27.317,0,49.463-17.375,49.463-41.247h0A40.116,40.116,0,0,0,86.589,28.742h0l0,0h0C77.755,20.1,81.473,5.7,83.435,0h0c-.113.235-9.184,19.2,1.418,29.58" transform="translate(0.054 0.25)" fill="none"/>
      <g id="Group_30-2" data-name="Group 30" clip-path="url(#clip-path-10)">
        <path id="Fill_28" data-name="Fill 28" d="M84.853,29.58l0,0h0a38.245,38.245,0,0,1,11.762,27.23h0c0,22.759-21.113,39.323-47.156,39.323h0c-26.044,0-47.156-16.564-47.156-39.323h0a38.021,38.021,0,0,1,10.809-26.24h0c12.015-13.426,3.75-28.131,2.415-30.3h0c2.4,5.341,6.193,17.9-4.193,29.508h0A39.88,39.88,0,0,0,0,57.3H0C0,81.177,22.145,98.552,49.463,98.552h0c27.317,0,49.463-17.375,49.463-41.247h0A40.116,40.116,0,0,0,86.589,28.742h0l0,0h0C77.755,20.1,81.473,5.7,83.435,0h0c-.113.235-9.184,19.2,1.418,29.58" transform="translate(0.054 0.25)" fill="none"/>
      </g>
    </g>
    <path id="Fill_31" data-name="Fill 31" d="M23,17.045c0,3.94-23,3.94-23,0V7.135A6.894,6.894,0,0,1,6.624,0h9.753A6.894,6.894,0,0,1,23,7.135Z" transform="translate(81 75)" fill="#ededed"/>
    <g id="Group_35" data-name="Group 35" transform="translate(81 76)">
      <path id="Clip_34-2" data-name="Clip 34" d="M6.6,0A6.805,6.805,0,0,0,0,7H0v9.718c0,3.865,22.9,3.865,22.9,0h0V7a6.805,6.805,0,0,0-6.6-7H6.6Z" transform="translate(0.07 0.241)" fill="none"/>
      <g id="Group_35-2" data-name="Group 35" clip-path="url(#clip-path-11)">
        <path id="Fill_33" data-name="Fill 33" d="M6.6,0A6.805,6.805,0,0,0,0,7H0v9.718c0,3.865,22.9,3.865,22.9,0h0V7a6.805,6.805,0,0,0-6.6-7H6.6Z" transform="translate(0.07 0.241)" fill="none"/>
      </g>
    </g>
    <g id="Group_38" data-name="Group 38" transform="translate(67 32)">
      <path id="Clip_37-2" data-name="Clip 37" d="M25.173,73.633a24.613,24.613,0,0,1-8.531-1.5,22.277,22.277,0,0,1-6.967-4.087,19.113,19.113,0,0,1-4.7-6.062,16.845,16.845,0,0,1-1.723-7.422V31.2A97.062,97.062,0,0,0,1.628,14.457C.825,9.935.008,6.828,0,6.8,0,3.049,3.5,0,7.813,0H42.534c4.308,0,7.813,3.049,7.813,6.8-.008.029-.811,3-1.627,7.537a96.986,96.986,0,0,0-1.628,16.544V54.563a16.845,16.845,0,0,1-1.723,7.422,19.087,19.087,0,0,1-4.7,6.062,22.264,22.264,0,0,1-6.967,4.087A24.623,24.623,0,0,1,25.173,73.633Zm-5.75-31.958a7.8,7.8,0,0,0-7.813,7.773v10.8c0,.995,1.466,1.83,4.238,2.415a47.566,47.566,0,0,0,9.325.8,47.566,47.566,0,0,0,9.325-.8c2.773-.585,4.238-1.42,4.238-2.415v-10.8a7.8,7.8,0,0,0-7.812-7.773ZM25.608,7.126A26.88,26.88,0,0,0,13.792,9.592C10.636,11.183,8.9,13.3,8.9,15.547c0,4.644,7.5,8.421,16.71,8.421s16.71-3.778,16.71-8.421c0-2.249-1.738-4.364-4.894-5.955A26.88,26.88,0,0,0,25.608,7.126Z" transform="translate(0.148 0.206)" fill="none"/>
      <g id="Group_38-2" data-name="Group 38" clip-path="url(#clip-path-12)">
        <path id="Fill_36" data-name="Fill 36" d="M25.173,73.633a24.613,24.613,0,0,1-8.531-1.5,22.277,22.277,0,0,1-6.967-4.087,19.113,19.113,0,0,1-4.7-6.062,16.845,16.845,0,0,1-1.723-7.422V31.2A97.062,97.062,0,0,0,1.628,14.457C.825,9.935.008,6.828,0,6.8,0,3.049,3.5,0,7.813,0H42.534c4.308,0,7.813,3.049,7.813,6.8-.008.029-.811,3-1.627,7.537a96.986,96.986,0,0,0-1.628,16.544V54.563a16.845,16.845,0,0,1-1.723,7.422,19.087,19.087,0,0,1-4.7,6.062,22.264,22.264,0,0,1-6.967,4.087A24.623,24.623,0,0,1,25.173,73.633Zm-5.75-31.958a7.8,7.8,0,0,0-7.813,7.773v10.8c0,.995,1.466,1.83,4.238,2.415a47.566,47.566,0,0,0,9.325.8,47.566,47.566,0,0,0,9.325-.8c2.773-.585,4.238-1.42,4.238-2.415v-10.8a7.8,7.8,0,0,0-7.812-7.773ZM25.608,7.126A26.88,26.88,0,0,0,13.792,9.592C10.636,11.183,8.9,13.3,8.9,15.547c0,4.644,7.5,8.421,16.71,8.421s16.71-3.778,16.71-8.421c0-2.249-1.738-4.364-4.894-5.955A26.88,26.88,0,0,0,25.608,7.126Z" transform="translate(0.148 0.206)" fill="none"/>
      </g>
    </g>
    <g id="Group_41" data-name="Group 41" transform="translate(73 38)">
      <path id="Clip_40-2" data-name="Clip 40" d="M18.873,19.733a29.432,29.432,0,0,1-13.345-2.89C1.963,14.98,0,12.5,0,9.867S1.963,4.753,5.528,2.89A29.432,29.432,0,0,1,18.873,0,29.434,29.434,0,0,1,32.219,2.89c3.565,1.864,5.528,4.341,5.528,6.977s-1.963,5.113-5.528,6.977A29.434,29.434,0,0,1,18.873,19.733Zm0-16.709c-8.056,0-14.611,3.034-14.611,6.764s6.554,6.764,14.611,6.764,14.612-3.034,14.612-6.764S26.93,3.024,18.873,3.024Z" transform="translate(0.246 0.174)" fill="none"/>
      <g id="Group_41-2" data-name="Group 41" clip-path="url(#clip-path-13)">
        <path id="Fill_39" data-name="Fill 39" d="M18.873,19.733a29.432,29.432,0,0,1-13.345-2.89C1.963,14.98,0,12.5,0,9.867S1.963,4.753,5.528,2.89A29.432,29.432,0,0,1,18.873,0,29.434,29.434,0,0,1,32.219,2.89c3.565,1.864,5.528,4.341,5.528,6.977s-1.963,5.113-5.528,6.977A29.434,29.434,0,0,1,18.873,19.733Zm0-16.709c-8.056,0-14.611,3.034-14.611,6.764s6.554,6.764,14.611,6.764,14.612-3.034,14.612-6.764S26.93,3.024,18.873,3.024Z" transform="translate(0.246 0.174)" fill="none"/>
      </g>
    </g>
    <g id="Group_44" data-name="Group 44" transform="translate(71 66)">
      <path id="Clip_43-2" data-name="Clip 43" d="M20.836,37.918a23.573,23.573,0,0,1-8.11-1.413A21.215,21.215,0,0,1,6.1,32.651a18.03,18.03,0,0,1-4.465-5.716,15.785,15.785,0,0,1-1.637-7V0H41.673V19.934a15.785,15.785,0,0,1-1.637,7,18.03,18.03,0,0,1-4.465,5.716A21.215,21.215,0,0,1,28.946,36.5,23.573,23.573,0,0,1,20.836,37.918ZM15.369,7.778a7.388,7.388,0,0,0-7.427,7.331V25.292c0,.938,1.393,1.726,4.029,2.278a45.545,45.545,0,0,0,8.864.759A45.545,45.545,0,0,0,29.7,27.57c2.636-.552,4.029-1.34,4.029-2.278V15.109A7.387,7.387,0,0,0,26.3,7.778Z" transform="translate(0.159 0.033)" fill="none"/>
      <g id="Group_44-2" data-name="Group 44" clip-path="url(#clip-path-14)">
        <path id="Fill_42" data-name="Fill 42" d="M20.836,37.918a23.573,23.573,0,0,1-8.11-1.413A21.215,21.215,0,0,1,6.1,32.651a18.03,18.03,0,0,1-4.465-5.716,15.785,15.785,0,0,1-1.637-7V0H41.673V19.934a15.785,15.785,0,0,1-1.637,7,18.03,18.03,0,0,1-4.465,5.716A21.215,21.215,0,0,1,28.946,36.5,23.573,23.573,0,0,1,20.836,37.918ZM15.369,7.778a7.388,7.388,0,0,0-7.427,7.331V25.292c0,.938,1.393,1.726,4.029,2.278a45.545,45.545,0,0,0,8.864.759A45.545,45.545,0,0,0,29.7,27.57c2.636-.552,4.029-1.34,4.029-2.278V15.109A7.387,7.387,0,0,0,26.3,7.778Z" transform="translate(0.159 0.033)" fill="none"/>
      </g>
    </g>
    <path id="Fill_45" data-name="Fill 45" d="M24,72a22.948,22.948,0,0,1-8.134-1.465,21.127,21.127,0,0,1-6.642-4,18.623,18.623,0,0,1-4.478-5.927A16.822,16.822,0,0,1,3.1,53.354V30.51A110.719,110.719,0,0,0,0,6.646C0,2.981,3.341,0,7.448,0h33.1C44.658,0,48,2.981,48,6.646a107.062,107.062,0,0,0-3.1,23.548v23.16a16.822,16.822,0,0,1-1.642,7.258,18.622,18.622,0,0,1-4.478,5.927,21.127,21.127,0,0,1-6.642,4A22.95,22.95,0,0,1,24,72ZM18.517,40.751a7.534,7.534,0,0,0-7.448,7.6V58.91c0,.973,1.4,1.789,4.041,2.361A44.23,44.23,0,0,0,24,62.058a44.235,44.235,0,0,0,8.89-.788c2.644-.572,4.041-1.388,4.041-2.361V48.352a7.534,7.534,0,0,0-7.448-7.6Zm5.9-33.783A25.079,25.079,0,0,0,13.149,9.38C10.14,10.935,8.483,13,8.483,15.2c0,4.54,7.146,8.234,15.93,8.234a25.081,25.081,0,0,0,11.265-2.412c3.009-1.555,4.667-3.623,4.667-5.822s-1.657-4.268-4.667-5.823A25.081,25.081,0,0,0,24.413,6.968Z" transform="translate(69 32)" fill="#fff"/>
    <g id="Group_49" data-name="Group 49" transform="translate(68 33)">
      <path id="Clip_48-2" data-name="Clip 48" d="M23.918,70.688a23.193,23.193,0,0,1-8.106-1.438,21.132,21.132,0,0,1-6.619-3.924,18.32,18.32,0,0,1-4.463-5.818,16.32,16.32,0,0,1-1.636-7.125V29.954A106.319,106.319,0,0,0,0,6.525C0,2.927,3.33,0,7.422,0h32.99c4.093,0,7.422,2.927,7.422,6.525a103.28,103.28,0,0,0-3.092,23.118V52.382a16.32,16.32,0,0,1-1.636,7.125,18.321,18.321,0,0,1-4.463,5.818,21.132,21.132,0,0,1-6.619,3.924A23.193,23.193,0,0,1,23.918,70.688ZM18.454,40.009a7.451,7.451,0,0,0-7.422,7.462V57.835c0,.955,1.392,1.757,4.027,2.319a44.722,44.722,0,0,0,8.859.773,44.722,44.722,0,0,0,8.859-.773c2.634-.562,4.027-1.364,4.027-2.319V47.471a7.451,7.451,0,0,0-7.422-7.462ZM24.448,5.99l-.346,0c-6.2.048-9.977,1.531-12.056,2.767a9.743,9.743,0,0,0-3.1,2.758A5.473,5.473,0,0,0,7.9,14.651a4.886,4.886,0,0,0,1.334,3.19,11.674,11.674,0,0,0,3.592,2.664,26.251,26.251,0,0,0,11.5,2.5,25.954,25.954,0,0,0,11.353-2.386c3.08-1.541,4.805-3.578,4.856-5.735a6.4,6.4,0,0,0-1.924-4.767C36.013,7.458,30.982,5.99,24.448,5.99Z" transform="translate(0.157 0.04)" fill="none"/>
      <g id="Group_49-2" data-name="Group 49" clip-path="url(#clip-path-15)">
        <path id="Fill_47" data-name="Fill 47" d="M23.918,70.688a23.193,23.193,0,0,1-8.106-1.438,21.132,21.132,0,0,1-6.619-3.924,18.32,18.32,0,0,1-4.463-5.818,16.32,16.32,0,0,1-1.636-7.125V29.954A106.319,106.319,0,0,0,0,6.525C0,2.927,3.33,0,7.422,0h32.99c4.093,0,7.422,2.927,7.422,6.525a103.28,103.28,0,0,0-3.092,23.118V52.382a16.32,16.32,0,0,1-1.636,7.125,18.321,18.321,0,0,1-4.463,5.818,21.132,21.132,0,0,1-6.619,3.924A23.193,23.193,0,0,1,23.918,70.688ZM18.454,40.009a7.451,7.451,0,0,0-7.422,7.462V57.835c0,.955,1.392,1.757,4.027,2.319a44.722,44.722,0,0,0,8.859.773,44.722,44.722,0,0,0,8.859-.773c2.634-.562,4.027-1.364,4.027-2.319V47.471a7.451,7.451,0,0,0-7.422-7.462ZM24.448,5.99l-.346,0c-6.2.048-9.977,1.531-12.056,2.767a9.743,9.743,0,0,0-3.1,2.758A5.473,5.473,0,0,0,7.9,14.651a4.886,4.886,0,0,0,1.334,3.19,11.674,11.674,0,0,0,3.592,2.664,26.251,26.251,0,0,0,11.5,2.5,25.954,25.954,0,0,0,11.353-2.386c3.08-1.541,4.805-3.578,4.856-5.735a6.4,6.4,0,0,0-1.924-4.767C36.013,7.458,30.982,5.99,24.448,5.99Z" transform="translate(0.157 0.04)" fill="none"/>
      </g>
    </g>
    <g id="Group_52" data-name="Group 52" transform="translate(86 77)">
      <path id="Clip_51-2" data-name="Clip 51" d="M0,5.8a5.865,5.865,0,0,0,5.929,5.8h0a5.865,5.865,0,0,0,5.929-5.8h0A5.866,5.866,0,0,0,5.929,0h0A5.866,5.866,0,0,0,0,5.8" transform="translate(0.054 0.209)" fill="none"/>
      <g id="Group_52-2" data-name="Group 52" clip-path="url(#clip-path-16)">
        <path id="Fill_50" data-name="Fill 50" d="M0,5.8a5.865,5.865,0,0,0,5.929,5.8h0a5.865,5.865,0,0,0,5.929-5.8h0A5.866,5.866,0,0,0,5.929,0h0A5.866,5.866,0,0,0,0,5.8" transform="translate(0.054 0.209)" fill="url(#linear-gradient-4)"/>
      </g>
    </g>
    <g id="Group_55" data-name="Group 55" transform="translate(87 78)">
      <path id="Clip_54-2" data-name="Clip 54" d="M0,4.894A5.078,5.078,0,0,0,5.242,9.788h0a5.076,5.076,0,0,0,5.242-4.894h0A5.076,5.076,0,0,0,5.242,0h0A5.078,5.078,0,0,0,0,4.894" transform="translate(0.24 0.113)" fill="none"/>
      <g id="Group_55-2" data-name="Group 55" clip-path="url(#clip-path-17)">
        <path id="Fill_53" data-name="Fill 53" d="M0,4.894A5.078,5.078,0,0,0,5.242,9.788h0a5.076,5.076,0,0,0,5.242-4.894h0A5.076,5.076,0,0,0,5.242,0h0A5.078,5.078,0,0,0,0,4.894" transform="translate(0.24 0.113)" fill="none"/>
      </g>
    </g>
    <g id="Group_58" data-name="Group 58" transform="translate(87 78)">
      <path id="Clip_57-2" data-name="Clip 57" d="M0,4.841A4.91,4.91,0,0,0,4.975,9.68h0A4.91,4.91,0,0,0,9.951,4.841h0A4.91,4.91,0,0,0,4.975,0h0A4.911,4.911,0,0,0,0,4.841" transform="translate(0.008 0.166)" fill="none"/>
      <g id="Group_58-2" data-name="Group 58" clip-path="url(#clip-path-18)">
        <path id="Fill_56" data-name="Fill 56" d="M0,4.841A4.91,4.91,0,0,0,4.975,9.68h0A4.91,4.91,0,0,0,9.951,4.841h0A4.91,4.91,0,0,0,4.975,0h0A4.911,4.911,0,0,0,0,4.841" transform="translate(0.008 0.166)" fill="url(#radial-gradient)"/>
      </g>
    </g>
  </g>
</svg>
